<?xml version="1.0" standalone="no"?>
<!DOCTYPE svg PUBLIC "-//W3C//DTD SVG 20010904//EN" "http://www.w3.org/TR/2001/REC-SVG-20010904/DTD/svg10.dtd">
<svg xmlns="http://www.w3.org/2000/svg" version="1.0" width="555.000000pt" height="548.000000pt" viewBox="0 0 555.000000 548.000000" preserveAspectRatio="xMidYMid meet">
<metadata>
Created by potrace 1.16, written by Peter Selinger 2001-2019
<meta name="Producer" content="Online-Convert"/></metadata>
<g transform="translate(0.000000,548.000000) scale(0.100000,-0.100000)" fill="#000000" stroke="none">
<path d="M2315 5326 c-24 -52 -55 -130 -69 -173 -25 -80 -76 -295 -76 -323 -1 -43 -17 -42 -71 1 -30 24 -116 88 -192 143 -76 54 -175 136 -222 182 -59 59 -86 80 -92 71 -4 -6 -7 -86 -6 -177 1 -126 6 -190 23 -270 29 -141 86 -313 109 -334 19 -17 24 -16 129 22 61 23 127 43 149 47 24 3 4 -7 -53 -28 -286 -107 -558 -302 -721 -519 -107 -141 -116 -164 -118 -288 -3 -127 -16 -179 -57 -226 -62 -70 -313 -286 -701 -600 -98 -80 -102 -89 -78 -155 80 -212 230 -362 429 -426 81 -27 86 -30 123 -84 76 -112 171 -176 302 -203 153 -32 319 -11 529 65 62 23 132 44 155 46 62 7 108 -25 141 -96 23 -50 26 -68 25 -161 0 -77 -6 -123 -22 -172 -60 -191 -62 -201 -62 -323 -2 -176 29 -292 114 -428 50 -79 90 -121 154 -161 39 -24 64 -22 47 5 -3 6 -15 43 -25 83 -27 102 -25 230 6 385 27 132 41 180 125 425 28 82 53 169 57 193 3 23 9 43 13 43 13 0 49 -102 59 -167 9 -55 0 -180 -14 -203 -2 -4 -7 -24 -9 -45 -5 -36 -4 -36 14 -20 32 29 126 176 163 257 102 215 109 400 25 567 -31 62 -120 171 -139 171 -5 0 -6 -43 -2 -95 3 -54 2 -95 -3 -95 -5 0 -23 9 -40 19 -17 11 -65 32 -105 47 -68 26 -86 28 -214 28 -155 0 -222 -14 -455 -96 -350 -124 -445 -137 -557 -80 -34 17 -64 36 -67 41 -4 6 26 9 72 9 94 0 119 10 256 96 181 114 270 152 504 220 79 23 143 46 144 51 0 15 -80 27 -144 21 -79 -8 -273 -72 -523 -175 -208 -85 -211 -86 -295 -85 -102 0 -172 28 -245 95 -65 60 -70 73 -41 102 28 29 86 138 86 164 0 10 -32 48 -72 84 l-73 66 29 37 c15 21 69 72 119 114 174 147 352 308 413 372 l62 65 4 101 c4 86 9 111 35 165 26 55 113 159 133 159 4 0 45 23 91 50 100 60 268 144 275 137 3 -2 -29 -37 -70 -77 -42 -40 -73 -76 -71 -80 2 -4 57 -10 122 -13 191 -9 378 -73 459 -158 l24 -25 -202 0 c-225 1 -309 -11 -475 -65 -129 -43 -136 -50 -134 -133 3 -99 -20 -143 -134 -252 -84 -80 -114 -124 -86 -124 6 0 88 39 183 86 95 48 238 113 318 145 136 56 148 63 201 119 l55 60 63 0 c67 0 66 1 29 -52 -11 -16 -17 -31 -14 -36 2 -4 56 -2 118 5 215 23 302 16 435 -37 154 -62 329 -202 415 -331 80 -120 142 -297 136 -389 l-3 -49 -69 55 c-83 67 -242 145 -354 173 -129 33 -147 28 -91 -25 81 -76 178 -248 214 -379 26 -95 31 -304 10 -422 -38 -215 -108 -348 -328 -623 -276 -346 -352 -540 -302 -774 8 -39 18 -73 23 -78 4 -4 32 29 62 75 102 154 258 288 495 424 39 22 160 87 270 143 310 160 394 216 520 352 150 162 299 420 337 583 7 30 16 55 20 55 10 0 10 6 -2 -109 -12 -107 -50 -271 -86 -369 -31 -83 -109 -230 -163 -308 -65 -93 -57 -96 72 -20 253 149 436 380 511 643 48 168 63 332 47 517 -19 224 -67 397 -156 565 -19 35 -33 66 -32 67 7 7 207 -235 265 -319 35 -51 91 -148 124 -216 56 -115 62 -123 75 -105 12 15 14 55 10 214 -4 169 -8 208 -30 293 -62 235 -213 466 -461 704 -107 103 -262 228 -342 275 -45 27 -37 34 18 15 226 -77 398 -130 404 -124 14 13 -68 117 -175 219 -116 112 -265 218 -442 312 -115 61 -267 129 -337 151 -54 17 -62 4 -37 -58 10 -23 30 -87 46 -142 47 -162 35 -212 -16 -68 -111 316 -323 597 -645 855 -121 96 -293 208 -321 208 -6 0 -30 -42 -54 -94z m236 -301 c149 -165 291 -351 336 -440 14 -27 40 -88 56 -135 29 -80 31 -94 32 -232 0 -80 -3 -149 -6 -152 -3 -3 -37 7 -75 22 l-69 29 -7 72 c-12 115 -44 234 -87 318 -49 99 -199 326 -210 319 -23 -15 -33 -429 -12 -505 7 -23 10 -45 7 -48 -3 -3 -22 8 -43 24 -21 16 -58 41 -82 57 l-44 28 6 127 c10 219 103 597 141 573 7 -4 32 -29 57 -57z m302 -1135 c267 -67 507 -223 686 -445 80 -100 97 -126 141 -215 90 -179 127 -349 117 -529 -15 -264 -87 -455 -241 -647 -55 -68 -127 -136 -115 -107 3 4 32 64 66 133 161 327 211 657 138 905 -32 108 -96 247 -160 346 -121 187 -449 450 -685 548 -30 13 -57 25 -59 27 -10 9 40 2 112 -16z"/>
</g>
</svg>
